<svg width="100" height="99" viewBox="0 0 100 99" fill="none" xmlns="http://www.w3.org/2000/svg">
<path d="M85.7088 29.1494H77.8963V42.4878C77.8963 48.2668 73.1951 52.968 67.4162 52.968H35.0229C32.3961 52.968 30.2591 55.105 30.2591 57.7317V84.5991C30.2591 92.4793 36.6701 98.8902 44.5503 98.8902H57.8887C65.7689 98.8902 72.1799 92.4793 72.1799 84.5991V76.7866H51.2195C49.6408 76.7866 48.3613 75.5071 48.3613 73.9284C48.3613 72.3496 49.6408 71.0701 51.2195 71.0701H85.7088C93.5891 71.0701 100 64.6592 100 56.779V43.4405C100 35.5603 93.5891 29.1494 85.7088 29.1494ZM57.8887 84.4085C59.4674 84.4085 60.7469 85.688 60.7469 87.2668C60.7469 88.8455 59.4674 90.125 57.8887 90.125C56.31 90.125 55.0305 88.8455 55.0305 87.2668C55.0305 85.688 56.31 84.4085 57.8887 84.4085Z" fill="#CCB800"/>
<path d="M22.1037 56.5122C22.1037 50.7332 26.8049 46.032 32.5838 46.032H64.9771C67.6039 46.032 69.7409 43.895 69.7409 41.2683V14.4009C69.7409 6.52068 63.3299 0.109756 55.4497 0.109756H42.1113C34.231 0.109756 27.8201 6.52068 27.8201 14.4009V22.2134H48.7805C50.3592 22.2134 51.6387 23.4929 51.6387 25.0716C51.6387 26.6504 50.3592 27.9299 48.7805 27.9299H14.2912C6.41092 27.9299 0 34.3408 0 42.221V55.5595C0 63.4397 6.41092 69.8506 14.2912 69.8506H22.1037V56.5122ZM42.1113 14.5915C40.5326 14.5915 39.253 13.312 39.253 11.7332C39.253 10.1545 40.5326 8.875 42.1113 8.875C43.69 8.875 44.9695 10.1545 44.9695 11.7332C44.9695 13.312 43.69 14.5915 42.1113 14.5915Z" fill="#0469BC"/>
</svg>
